<svg id="Calque_1" data-name="Calque 1" xmlns="http://www.w3.org/2000/svg" viewBox="0 0 40 30"><defs><style>.cls-1{fill:url(#Dégradé_sans_nom_4)}</style><linearGradient id="Dégradé_sans_nom_4" x1="-2694.38" y1="208.04" x2="-2674.24" y2="233.37" gradientTransform="translate(2701.68 -208.92)" gradientUnits="userSpaceOnUse"><stop offset="0" stop-color="#dd272d"/><stop offset=".52" stop-color="#ca2429"/><stop offset="1" stop-color="#b22025"/></linearGradient></defs><title>pixietubeuse_decoupe_images</title><path class="cls-1" d="M20.59 2.5c-6.82 0-10.26 4.89-10.26 9 0 2.47.94 4.67 2.94 5.48a.49.49 0 0 0 .73-.38l.29-1.15a.7.7 0 0 0-.21-.8 4.14 4.14 0 0 1-.95-2.82A6.8 6.8 0 0 1 20.19 5c3.86 0 6 2.36 6 5.5 0 4.14-1.83 7.64-4.55 7.64a2.22 2.22 0 0 1-2.27-2.77c.43-1.82 1.27-3.78 1.27-5.1a1.92 1.92 0 0 0-1.94-2.16c-1.54 0-2.77 1.59-2.77 3.72a5.53 5.53 0 0 0 .46 2.27l-1.85 7.82a16.11 16.11 0 0 0 0 5.46.19.19 0 0 0 .34.08 15.33 15.33 0 0 0 2.59-4.7c.18-.64 1-3.95 1-3.95a4.12 4.12 0 0 0 3.51 1.79c4.62 0 7.75-4.21 7.75-9.84-.05-4.29-3.66-8.26-9.14-8.26z"/></svg>