<svg id="Calque_1" data-name="Calque 1" xmlns="http://www.w3.org/2000/svg" viewBox="0 0 40 30"><defs><style>.cls-1{fill:#fff}.cls-2{fill:url(#Dégradé_sans_nom_4)}</style><linearGradient id="Dégradé_sans_nom_4" x1="-2707.07" y1="198.52" x2="-2637.9" y2="267.69" gradientTransform="translate(2701.68 -208.92)" gradientUnits="userSpaceOnUse"><stop offset="0" stop-color="#dd272d"/><stop offset=".52" stop-color="#ca2429"/><stop offset="1" stop-color="#b22025"/></linearGradient></defs><title>pixietubeuse_decoupe_images</title><path class="cls-1" d="M33.2 5.64a4 4 0 0 0-2.94-1.32C26.16 4 20 4 20 4s-6.16 0-10.26.32A4 4 0 0 0 6.8 5.64a7.06 7.06 0 0 0-1.17 3.11 50.39 50.39 0 0 0-.29 5.06v2.37a50.37 50.37 0 0 0 .29 5.06 7 7 0 0 0 1.17 3.1 4.8 4.8 0 0 0 3.2 1.35c2.38.24 10 .31 10 .31s6.16 0 10.27-.33a4.06 4.06 0 0 0 2.94-1.33 7 7 0 0 0 1.17-3.1 50.39 50.39 0 0 0 .29-5.06v-2.37a50.4 50.4 0 0 0-.29-5.06 7.05 7.05 0 0 0-1.18-3.11z"/><path class="cls-2" d="M35 4.36a4.6 4.6 0 0 0-3.34-1.5C27 2.5 20 2.5 20 2.5s-7 0-11.66.36A4.6 4.6 0 0 0 5 4.36a8 8 0 0 0-1.33 3.53 57.26 57.26 0 0 0-.33 5.75v2.7a57.24 57.24 0 0 0 .33 5.75A8 8 0 0 0 5 25.62a5.45 5.45 0 0 0 3.67 1.52c2.67.28 11.33.36 11.33.36s7 0 11.67-.37A4.62 4.62 0 0 0 35 25.62a8 8 0 0 0 1.32-3.53 57.27 57.27 0 0 0 .33-5.75v-2.7a57.27 57.27 0 0 0-.33-5.75A8 8 0 0 0 35 4.36zM15.84 21.25V8.75L26.26 15z"/></svg>