<svg id="Calque_1" data-name="Calque 1" xmlns="http://www.w3.org/2000/svg" viewBox="0 0 190 50"><defs><style>.cls-1{opacity:.2}.cls-2{fill:#e7a6c5}</style></defs><title>pixietubeuse_decoupe_images</title><g class="cls-1"><path class="cls-2" d="M181.21 40.34c-4.66-1.61-3.28-5.22-5-7.52l2.32-1c3.12 1.14 7.93 3.16 7.07 5.7-.32.4-2.42 3.26-4.39 2.82zm5.08-11.18c-.43.07-.51-.32-.95-.25l1.2-3zm-13.53 5l-2.18.35c-.51-.32.72-.92.64-1.31l-2.48-1.2c3.35 1.06 3.26-1.74 4.02 2.16zm-29.01-15.52c-1.67-1.75 1.22-3 1.87-4.32 1.38.18 2.62 2 1.54 3.38-1.82-.12-2.54.8-3.41.94zM160 35.4c.78-2.94 5.59-1.29 5.06-4a7.1 7.1 0 0 0-1-3.05l-2.38 1.59c-6-1.06 2.44-3.61-1.65-6.18a2.23 2.23 0 0 0-1.67.66c-2 1.52-1.36 2.23-.19 3.66-5.74.5-3.68-7.47-6.8-7.38-4.27 1.07-1.56 5.88-2.57 7.65 0-4.83-7.88-8.42-14.19-8.66-5.88 2.12-12.55-2.5-19.59.58a108.77 108.77 0 0 0-10.93-2v-.79a1.61 1.61 0 0 0-.15.7c-2.93-3.48-9.7 1.65-10.42-3.83l-.7.48c-3.53.41 0-2-2-3.09-3.26.73-7.58-3.78-9.25.82-.27-.31.08-.55-.18-.87l-2.64.8c-.17 1.11-.7 2.46-.26 3.65-.61-.08-1.15 1.27-2 .88-2.21 0-.27-2.3-1.06-3.25-5.55 1.28-11.91 1.59-17.19-.8 0-4-6.07-3.35-8.62-3.11-5.09-3.52-11 3.92-14.89.56 2.31-2.52 6.25.27 6.7-2.5l-1-1.27c-2.37-.88-6.14-2.81-7.57.11 1.31 1.6 1.39 3 1.82 4.22-1.06.71-1.24 1.82-2.57 2.21-1.94.3-4.05-.27-4-2.25 1.06-.71 2.2 0 3.17-.14.15-2.22-3.28-2.4-4.42-3.12 2 5.09-3.4 7.2 2 10.49l-3 1c-2.33 4.51 9.68 4.43 4.44 9.39-.54 1.35.16 2.86-1.62 4a2.18 2.18 0 0 0 3.71.5c1.31 3.58 7.51.44 7.67 5.28 5.06-3.87 7.42 3 12 3.86 5.84 1 2-2.85 3.73-5.47 2.92 1.51 5.85-.94 7.62-2.13C65 34.57 66 36.39 65 37.11c11.91 4.37 24.05 5.61 36 5.89 4.89 3.15 9.38-1.41 14.21 4.27l-.8-.95c-.12-.56.49-.8 1-1q-1.2-1.55-2.31-3.13a13.13 13.13 0 0 0 4.27.64c1.53-3.85 8.08 0 10-3.94 7.86 1.21 4.59 2.92 12.54 4.51 4.22-1.46 9.23-3.45 14.26-3 1.82.12 3.51 1.86 3.22 2.72a48.51 48.51 0 0 1 7.57-.4c9.59-4.01-1.35-7.08-4.96-7.32z"/><path class="cls-2" d="M64.28 7.82c.35-2.22-2-3.09-2.81-4l-1.06.72c-2.64.78-2.73 3.32-1.06 4.67.65-1.94 3.43-1.86 4.93-1.39zm21.29-1.53l-.34 2.22 3.25-.72c-.09-1.43-1.67-1.35-2.91-1.5zM17 23.07c3.09.42 4.31 2.58 7.58 1.89L24 20.91c-3.16-1.85-6.49-4.57-10.28-4.53-2.58 4.18 4.58 2.9 3.28 6.69zm6.68 7.44c-5.68 3.77-12.26-2.25-17.1 3.88 1.23 9.54 9.56-.37 13.16 2.67a57 57 0 0 1 6.84-3c2.22-2.01-1.4-3.06-2.9-3.55zm-18.56-.58a2.84 2.84 0 0 0-1.69.62c-.45.79.69 1.52 1.22 2.16.62.09 2.23-1.96.47-2.78z"/></g></svg>