<svg id="Calque_1" data-name="Calque 1" xmlns="http://www.w3.org/2000/svg" xmlns:xlink="http://www.w3.org/1999/xlink" viewBox="0 0 40 30"><defs><style>.cls-1{fill:url(#Dégradé_sans_nom_3);}</style><linearGradient id="Dégradé_sans_nom_3" x1="-2693.74" y1="211.09" x2="-2668.08" y2="236.75" gradientTransform="translate(2701.68 -208.92)" gradientUnits="userSpaceOnUse"><stop offset="0" stop-color="#11a4dc"/><stop offset="0.51" stop-color="#0f94c9"/><stop offset="1" stop-color="#0c82b4"/></linearGradient></defs><title>pixietubeuse_decoupe_images</title><path class="cls-1" d="M34.53,3a12.63,12.63,0,0,1-4,1.53,6.32,6.32,0,0,0-10.75,5.76,17.92,17.92,0,0,1-13-6.59,6.32,6.32,0,0,0,2,8.43,6.29,6.29,0,0,1-2.86-.79s0,0.05,0,.08a6.32,6.32,0,0,0,5.06,6.19,6.34,6.34,0,0,1-1.66.22,6.25,6.25,0,0,1-1.19-.11A6.32,6.32,0,0,0,14,22.05a12.74,12.74,0,0,1-9.34,2.61,17.86,17.86,0,0,0,9.67,2.84c11.61,0,18-9.62,18-18q0-.41,0-0.82a12.78,12.78,0,0,0,3.15-3.27,12.56,12.56,0,0,1-3.62,1A6.32,6.32,0,0,0,34.53,3Z"/></svg>