<svg id="Calque_1" data-name="Calque 1" xmlns="http://www.w3.org/2000/svg" viewBox="0 0 190 50"><defs><style>.cls-1{opacity:0.5;}.cls-2{fill:#e7a6c5;}</style></defs><title>pixietubeuse_decoupe_images</title><g class="cls-1"><path class="cls-2" d="M181.21,40.34c-4.66-1.61-3.28-5.22-5-7.52l2.32-1c3.12,1.14,7.93,3.16,7.07,5.7C185.28,37.92,183.18,40.78,181.21,40.34Z"/><path class="cls-2" d="M186.29,29.16c-0.43.07-.51-0.32-0.95-0.25l1.2-3Z"/><path class="cls-2" d="M172.76,34.16l-2.18.35c-0.51-.32.72-0.92,0.64-1.31L168.74,32C172.09,33.06,172,30.26,172.76,34.16Z"/><path class="cls-2" d="M143.75,18.64c-1.67-1.75,1.22-3,1.87-4.32,1.38,0.18,2.62,2,1.54,3.38C145.34,17.58,144.62,18.5,143.75,18.64Z"/><path class="cls-2" d="M160,35.4c0.78-2.94,5.59-1.29,5.06-4a7.1,7.1,0,0,0-1-3.05l-2.38,1.59c-6-1.06,2.44-3.61-1.65-6.18a2.23,2.23,0,0,0-1.67.66c-2,1.52-1.36,2.23-.19,3.66-5.74.5-3.68-7.47-6.8-7.38-4.27,1.07-1.56,5.88-2.57,7.65,0-4.83-7.88-8.42-14.19-8.66-5.88,2.12-12.55-2.5-19.59.58a108.78,108.78,0,0,0-10.93-2V17.48a1.61,1.61,0,0,0-.15.7c-2.93-3.48-9.7,1.65-10.42-3.83l-0.7.48c-3.53.41,0-2-2-3.09-3.26.73-7.58-3.78-9.25,0.82-0.27-.31.08-0.55-0.18-0.87l-2.64.8c-0.17,1.11-.7,2.46-0.26,3.65-0.61-.08-1.15,1.27-2,0.88-2.21,0-.27-2.3-1.06-3.25-5.55,1.28-11.91,1.59-17.19-.8,0-4-6.07-3.35-8.62-3.11-5.09-3.52-11,3.92-14.89.56,2.31-2.52,6.25.27,6.7-2.5l-1-1.27c-2.37-.88-6.14-2.81-7.57.11,1.31,1.6,1.39,3,1.82,4.22-1.06.71-1.24,1.82-2.57,2.21-1.94.3-4.05-.27-4-2.25,1.06-.71,2.2,0,3.17-0.14C31.43,8.58,28,8.4,26.86,7.68c2,5.09-3.4,7.2,2,10.49l-3,1c-2.33,4.51,9.68,4.43,4.44,9.39-0.54,1.35.16,2.86-1.62,4a2.18,2.18,0,0,0,3.71.5c1.31,3.58,7.51.44,7.67,5.28,5.06-3.87,7.42,3,12,3.86,5.84,1,2-2.85,3.73-5.47,2.92,1.51,5.85-.94,7.62-2.13C65,34.57,66,36.39,65,37.11,76.91,41.48,89.05,42.72,101,43c4.89,3.15,9.38-1.41,14.21,4.27l-0.8-.95c-0.12-.56.49-0.8,1-1q-1.2-1.55-2.31-3.13a13.13,13.13,0,0,0,4.27.64c1.53-3.85,8.08,0,10-3.94,7.86,1.21,4.59,2.92,12.54,4.51,4.22-1.46,9.23-3.45,14.26-3,1.82,0.12,3.51,1.86,3.22,2.72a48.51,48.51,0,0,1,7.57-.4C174.55,38.71,163.61,35.64,160,35.4Z"/><path class="cls-2" d="M64.28,7.82c0.35-2.22-2-3.09-2.81-4l-1.06.72c-2.64.78-2.73,3.32-1.06,4.67C60,7.27,62.78,7.35,64.28,7.82Z"/><path class="cls-2" d="M85.57,6.29L85.23,8.51l3.25-.72C88.39,6.36,86.81,6.44,85.57,6.29Z"/><path class="cls-2" d="M17,23.07c3.09,0.42,4.31,2.58,7.58,1.89L24,20.91c-3.16-1.85-6.49-4.57-10.28-4.53C11.14,20.56,18.3,19.28,17,23.07Z"/><path class="cls-2" d="M23.68,30.51C18,34.28,11.42,28.26,6.58,34.39c1.23,9.54,9.56-.37,13.16,2.67a57,57,0,0,1,6.84-3C28.8,32.05,25.18,31,23.68,30.51Z"/><path class="cls-2" d="M5.12,29.93a2.84,2.84,0,0,0-1.69.62c-0.45.79,0.69,1.52,1.22,2.16C5.27,32.8,6.88,30.75,5.12,29.93Z"/></g></svg>